<svg width="32" height="33" viewBox="0 0 32 33" fill="none" xmlns="http://www.w3.org/2000/svg">
<path d="M15.9667 28.3251C15.7981 28.3251 15.6337 28.3084 15.4736 28.2751C15.3134 28.2417 15.1556 28.1806 15 28.0917L7.33333 23.8917C7.02222 23.7139 6.77222 23.4709 6.58333 23.1626C6.39444 22.8542 6.3 22.5084 6.3 22.1251V15.3251L2.93333 13.4917C2.75873 13.3927 2.63174 13.2689 2.55237 13.1203C2.47301 12.9717 2.43333 12.8066 2.43333 12.6251C2.43333 12.4435 2.47301 12.2784 2.55237 12.1298C2.63174 11.9812 2.75873 11.8574 2.93333 11.7584L15 5.15839C15.1526 5.0695 15.3095 5.00283 15.4706 4.95839C15.6317 4.91395 15.7971 4.89172 15.9667 4.89172C16.1363 4.89172 16.3016 4.91395 16.4627 4.95839C16.6238 5.00283 16.7807 5.0695 16.9333 5.15839L30.1333 12.3251C30.3111 12.4362 30.4444 12.5691 30.5333 12.724C30.6222 12.8788 30.6667 13.0458 30.6667 13.2251V22.1917C30.6667 22.4751 30.5703 22.7126 30.3775 22.9042C30.1847 23.0959 29.9458 23.1917 29.6608 23.1917C29.3758 23.1917 29.1389 23.0959 28.95 22.9042C28.7611 22.7126 28.6667 22.4751 28.6667 22.1917V13.7917L25.6333 15.3251V22.1251C25.6333 22.5084 25.5389 22.8542 25.35 23.1626C25.1611 23.4709 24.9111 23.7139 24.6 23.8917L16.9333 28.0917C16.7778 28.1806 16.6199 28.2417 16.4598 28.2751C16.2996 28.3084 16.1352 28.3251 15.9667 28.3251ZM15.9667 18.3584L26.4667 12.6251L15.9667 6.99172L5.53333 12.6251L15.9667 18.3584ZM15.9667 26.3584L23.6333 22.1251V16.5251L16.9333 20.1251C16.7778 20.2139 16.6222 20.2751 16.4667 20.3084C16.3111 20.3417 16.1444 20.3584 15.9667 20.3584C15.7889 20.3584 15.6278 20.3417 15.4833 20.3084C15.3389 20.2751 15.1889 20.2139 15.0333 20.1251L8.3 16.4584V22.1251L15.9667 26.3584Z" fill="#AFAFAF"/>
</svg>
