<svg width="32" height="33" viewBox="0 0 32 33" fill="none" xmlns="http://www.w3.org/2000/svg">
<path d="M15 26.625V21.6917C13.8 21.4472 12.7333 20.9306 11.8 20.1417C10.8667 19.3528 10.2222 18.3694 9.86667 17.1917C8.22222 17.0139 6.83333 16.3472 5.7 15.1917C4.56667 14.0361 4 12.6472 4 11.025V9.55833C4 9.00833 4.19583 8.5375 4.5875 8.14583C4.97917 7.75417 5.45 7.55833 6 7.55833H9.46667V6.625C9.46667 6.075 9.6625 5.60417 10.0542 5.2125C10.4458 4.82083 10.9167 4.625 11.4667 4.625H20.5333C21.0833 4.625 21.5542 4.82083 21.9458 5.2125C22.3375 5.60417 22.5333 6.075 22.5333 6.625V7.55833H26C26.55 7.55833 27.0208 7.75417 27.4125 8.14583C27.8042 8.5375 28 9.00833 28 9.55833V11.025C28 12.6472 27.4333 14.0361 26.3 15.1917C25.1667 16.3472 23.7778 17.0139 22.1333 17.1917C21.7778 18.3694 21.1333 19.3528 20.2 20.1417C19.2667 20.9306 18.2 21.4472 17 21.6917V26.625H21.0667C21.35 26.625 21.5875 26.7214 21.7792 26.9142C21.9708 27.107 22.0667 27.3459 22.0667 27.6308C22.0667 27.9158 21.9708 28.1528 21.7792 28.3417C21.5875 28.5306 21.35 28.625 21.0667 28.625H10.9333C10.65 28.625 10.4125 28.5286 10.2208 28.3358C10.0292 28.143 9.93333 27.9041 9.93333 27.6192C9.93333 27.3342 10.0292 27.0972 10.2208 26.9083C10.4125 26.7194 10.65 26.625 10.9333 26.625H15ZM9.46667 15.0917V9.55833H6V11.025C6 12.025 6.32778 12.8972 6.98333 13.6417C7.63889 14.3861 8.46667 14.8694 9.46667 15.0917ZM16.0078 19.7917C17.2693 19.7917 18.3389 19.3477 19.2167 18.4597C20.0944 17.5718 20.5333 16.4935 20.5333 15.225V6.625H11.4667V15.225C11.4667 16.4935 11.9082 17.5718 12.7912 18.4597C13.6742 19.3477 14.7464 19.7917 16.0078 19.7917ZM22.5333 15.0917C23.5333 14.8694 24.3611 14.3861 25.0167 13.6417C25.6722 12.8972 26 12.025 26 11.025V9.55833H22.5333V15.0917Z" fill="#AFAFAF"/>
</svg>
