<svg width="32" height="32" viewBox="0 0 32 32" fill="none" xmlns="http://www.w3.org/2000/svg">
<path d="M17 12V5C17 4.71667 17.0958 4.47917 17.2875 4.2875C17.4792 4.09583 17.7167 4 18 4H27C27.2833 4 27.5208 4.09583 27.7125 4.2875C27.9042 4.47917 28 4.71667 28 5V12C28 12.2833 27.9042 12.5208 27.7125 12.7125C27.5208 12.9042 27.2833 13 27 13H18C17.7167 13 17.4792 12.9042 17.2875 12.7125C17.0958 12.5208 17 12.2833 17 12ZM4 16V5C4 4.71667 4.09583 4.47917 4.2875 4.2875C4.47917 4.09583 4.71667 4 5 4H14C14.2833 4 14.5208 4.09583 14.7125 4.2875C14.9042 4.47917 15 4.71667 15 5V16C15 16.2833 14.9042 16.5208 14.7125 16.7125C14.5208 16.9042 14.2833 17 14 17H5C4.71667 17 4.47917 16.9042 4.2875 16.7125C4.09583 16.5208 4 16.2833 4 16ZM17 27V16C17 15.7167 17.0958 15.4792 17.2875 15.2875C17.4792 15.0958 17.7167 15 18 15H27C27.2833 15 27.5208 15.0958 27.7125 15.2875C27.9042 15.4792 28 15.7167 28 16V27C28 27.2833 27.9042 27.5208 27.7125 27.7125C27.5208 27.9042 27.2833 28 27 28H18C17.7167 28 17.4792 27.9042 17.2875 27.7125C17.0958 27.5208 17 27.2833 17 27ZM4 27V20C4 19.7167 4.09583 19.4792 4.2875 19.2875C4.47917 19.0958 4.71667 19 5 19H14C14.2833 19 14.5208 19.0958 14.7125 19.2875C14.9042 19.4792 15 19.7167 15 20V27C15 27.2833 14.9042 27.5208 14.7125 27.7125C14.5208 27.9042 14.2833 28 14 28H5C4.71667 28 4.47917 27.9042 4.2875 27.7125C4.09583 27.5208 4 27.2833 4 27ZM6 15H13V6H6V15ZM19 26H26V17H19V26ZM19 11H26V6H19V11ZM6 26H13V21H6V26Z" fill="white"/>
</svg>
