<svg width="32" height="33" viewBox="0 0 32 33" fill="none" xmlns="http://www.w3.org/2000/svg">
<path d="M5.96666 28.625C5.43333 28.625 4.96666 28.425 4.56666 28.025C4.16666 27.625 3.96666 27.1583 3.96666 26.625V15.325C3.34444 14.7917 2.93333 14.1361 2.73333 13.3583C2.53333 12.5806 2.55555 11.8028 2.79999 11.025L4.23333 6.525C4.41111 5.925 4.72222 5.45833 5.16666 5.125C5.61111 4.79167 6.12222 4.625 6.69999 4.625H25.1333C25.7556 4.625 26.3 4.79722 26.7667 5.14167C27.2333 5.48611 27.5556 5.94722 27.7333 6.525L29.2 11.025C29.4444 11.8028 29.4611 12.5806 29.25 13.3583C29.0389 14.1361 28.6222 14.7917 28 15.325V26.625C28 27.1583 27.8 27.625 27.4 28.025C27 28.425 26.5333 28.625 26 28.625H5.96666ZM19 14.2917C19.6444 14.2917 20.1889 14.0806 20.6333 13.6583C21.0778 13.2361 21.2556 12.725 21.1667 12.125L20.3333 6.625H17V12.125C17 12.7028 17.1889 13.2083 17.5667 13.6417C17.9444 14.075 18.4222 14.2917 19 14.2917ZM12.7667 14.2917C13.3889 14.2917 13.9167 14.0806 14.35 13.6583C14.7833 13.2361 15 12.725 15 12.125V6.625H11.6667L10.8333 12.125C10.7444 12.7028 10.9 13.2083 11.3 13.6417C11.7 14.075 12.1889 14.2917 12.7667 14.2917ZM6.69999 14.2917C7.23333 14.2917 7.69444 14.1083 8.08333 13.7417C8.47222 13.375 8.69999 12.925 8.76666 12.3917L9.63333 6.625H6.29999L4.76666 11.4917C4.54444 12.1806 4.63333 12.8194 5.03333 13.4083C5.43333 13.9972 5.98888 14.2917 6.69999 14.2917ZM25.2667 14.2917C25.9778 14.2917 26.5389 14.0028 26.95 13.425C27.3611 12.8472 27.4556 12.2028 27.2333 11.4917L25.7 6.625H22.3667L23.2333 12.3917C23.3 12.925 23.5278 13.375 23.9167 13.7417C24.3056 14.1083 24.7556 14.2917 25.2667 14.2917ZM5.96666 26.625H26V16.2583C26.0222 16.2806 25.95 16.2917 25.7833 16.2917H25.2667C24.7111 16.2917 24.1833 16.175 23.6833 15.9417C23.1833 15.7083 22.6889 15.3472 22.2 14.8583C21.8444 15.3028 21.4 15.6528 20.8667 15.9083C20.3333 16.1639 19.7444 16.2917 19.1 16.2917C18.4333 16.2917 17.8611 16.1972 17.3833 16.0083C16.9056 15.8194 16.4444 15.5028 16 15.0583C15.6667 15.4583 15.2444 15.7639 14.7333 15.975C14.2222 16.1861 13.6444 16.2917 13 16.2917C12.3111 16.2917 11.7 16.1694 11.1667 15.925C10.6333 15.6806 10.1778 15.325 9.79999 14.8583C9.26666 15.325 8.74444 15.6806 8.23333 15.925C7.72222 16.1694 7.21111 16.2917 6.69999 16.2917H6.24999C6.10555 16.2917 6.01111 16.2806 5.96666 16.2583V26.625Z" fill="#AFAFAF"/>
</svg>
